<svg width="24" height="24" viewBox="0 0 24 24" fill="none" xmlns="http://www.w3.org/2000/svg">
<path d="M17.9976 2H3.99756C2.89299 2 1.99756 2.89543 1.99756 4V20C1.99756 21.1046 2.89299 22 3.99756 22H17.9976C19.1021 22 19.9976 21.1046 19.9976 20V4C19.9976 2.89543 19.1021 2 17.9976 2Z" fill="#F8C337"/>
<path d="M17.9976 4H3.99756V20H17.9976V4Z" fill="white"/>
<path d="M9.99756 16H6.99756C6.44527 16 5.99756 16.4477 5.99756 17C5.99756 17.5523 6.44527 18 6.99756 18H9.99756C10.5498 18 10.9976 17.5523 10.9976 17C10.9976 16.4477 10.5498 16 9.99756 16Z" fill="#919191"/>
<path d="M12.9976 12H6.99756C6.44527 12 5.99756 12.4477 5.99756 13C5.99756 13.5523 6.44527 14 6.99756 14H12.9976C13.5498 14 13.9976 13.5523 13.9976 13C13.9976 12.4477 13.5498 12 12.9976 12Z" fill="#919191"/>
<path d="M14.9976 8H6.99756C6.44527 8 5.99756 8.44772 5.99756 9C5.99756 9.55228 6.44527 10 6.99756 10H14.9976C15.5498 10 15.9976 9.55228 15.9976 9C15.9976 8.44772 15.5498 8 14.9976 8Z" fill="#919191"/>
<path fill-rule="evenodd" clip-rule="evenodd" d="M13.9976 3C13.9976 1.34315 12.6545 0 10.9976 0C9.34071 0 7.99756 1.34315 7.99756 3H7.49756C6.66913 3 5.99756 3.67157 5.99756 4.5C5.99756 5.32843 6.66913 6 7.49756 6H10.9976H14.4976C15.326 6 15.9976 5.32843 15.9976 4.5C15.9976 3.67157 15.326 3 14.4976 3H13.9976Z" fill="#55A963"/>
<path d="M10.9976 4C11.5498 4 11.9976 3.55228 11.9976 3C11.9976 2.44772 11.5498 2 10.9976 2C10.4453 2 9.99756 2.44772 9.99756 3C9.99756 3.55228 10.4453 4 10.9976 4Z" fill="#757575"/>
<path d="M17.3492 11.6484L10.0015 18.9961L13.0015 21.9961L20.3492 14.6484L17.3492 11.6484Z" fill="#C12929"/>
<path d="M17.3492 11.6484L10.0015 18.9961L11.5015 20.4961L18.8492 13.1484L17.3492 11.6484Z" fill="#D85050"/>
<path d="M9.49756 22.5L10.0015 18.9961L13.0015 21.9961L9.49756 22.5Z" fill="#F8E4AF"/>
<path d="M18.3511 10.6465L17.3491 11.6484L20.3491 14.6484L21.3511 13.6465L18.3511 10.6465Z" fill="#D9D9D9"/>
<path d="M18.3511 10.6465L18.521 10.4766C19.3495 9.64811 20.6926 9.64811 21.521 10.4766C22.3495 11.305 22.3495 12.6481 21.521 13.4766L21.3511 13.6465L18.3511 10.6465Z" fill="#727272"/>
<path fill-rule="evenodd" clip-rule="evenodd" d="M9.66554 21.332L8.98975 23.0078L10.6656 22.332L9.66554 21.332Z" fill="#727272"/>
</svg>
