<svg width="32" height="21" viewBox="0 0 32 21" fill="none" xmlns="http://www.w3.org/2000/svg">
<rect width="32" height="17.0966" fill="#FFFEFE"/>
<path d="M2.70618 14.0117V19.9384H30.6452L31.1879 4.50843L28.6277 4.72404L27.292 6.34116H26.4015L25.6223 4.72404L24.7458 3.83179H20.836L17.8445 10.0198L13.8234 10.7613L12.4876 8.60511L8.59174 7.82368L6.47684 14.9657L2.70618 14.0117Z" fill="#78C1C4"/>
<path d="M4.62782 16.3823L2.70618 20.4088H31.0787V14.1802V7.95157L29.044 6.87301L27.744 12.2603L25.0877 9.56961L23.5051 14.6386L21.6965 5.84839L18.0793 12.2603L15.6631 11.039L12.8796 12.8051L8.58414 11.039V15.825L4.62782 16.3823Z" fill="#FEC248"/>
<path d="M6.15878 18.6292L2.74255 20.5029H31.1878V10.2178L29.2497 12.8463L27.8971 14.747H24.3275L21.8873 17.6586L20.2141 15.8658L18.6524 13.5608L15.9752 13.8843L12.8518 14.747L11.2204 16.5802H8.83598L6.15878 18.6292Z" fill="#F36016"/>
<path d="M2.7114 0.997795L2.7114 20.4131" stroke="black"/>
<path d="M2.71185 20.4104L31.2252 20.4849" stroke="black"/>
<path d="M0.773801 4.58643V3.93443L0.908801 3.87143V4.58643H0.773801ZM1.17649 4.47243H1.50149V4.58643H1.05249C1.05049 4.57576 1.04882 4.56509 1.04749 4.55443C1.04615 4.54343 1.04549 4.53076 1.04549 4.51643C1.04549 4.47409 1.05232 4.43793 1.06599 4.40793C1.07999 4.37793 1.10032 4.35109 1.12699 4.32743C1.15399 4.30376 1.18715 4.28043 1.22649 4.25743C1.24815 4.24476 1.26982 4.23076 1.29149 4.21543C1.31315 4.20009 1.33115 4.18193 1.34549 4.16093C1.36015 4.13959 1.36749 4.11376 1.36749 4.08343C1.36749 4.05743 1.35932 4.03426 1.34299 4.01393C1.32699 3.99359 1.30115 3.98343 1.26549 3.98343C1.22849 3.98343 1.19882 3.99543 1.17649 4.01943C1.15449 4.04343 1.14049 4.07443 1.13449 4.11243L1.02849 4.06243C1.03382 4.02776 1.04732 3.99609 1.06899 3.96743C1.09065 3.93843 1.11899 3.91543 1.15399 3.89843C1.18899 3.88109 1.22915 3.87243 1.27449 3.87243C1.31582 3.87243 1.35332 3.88026 1.38699 3.89593C1.42065 3.91126 1.44749 3.93376 1.46749 3.96343C1.48749 3.99309 1.49749 4.02909 1.49749 4.07143C1.49749 4.11476 1.48965 4.15226 1.47399 4.18393C1.45832 4.21559 1.43515 4.24443 1.40449 4.27043C1.37415 4.29643 1.33682 4.32276 1.29249 4.34943C1.26115 4.36843 1.23532 4.38626 1.21499 4.40293C1.19499 4.41926 1.18215 4.44243 1.17649 4.47243ZM1.84004 4.60443C1.77937 4.60443 1.73037 4.58893 1.69304 4.55793C1.6557 4.52659 1.62854 4.48359 1.61154 4.42893C1.59454 4.37393 1.58604 4.31076 1.58604 4.23943C1.58604 4.11476 1.6082 4.02243 1.65254 3.96243C1.6972 3.90243 1.7597 3.87243 1.84004 3.87243C1.9207 3.87243 1.9832 3.90243 2.02754 3.96243C2.07187 4.02243 2.09404 4.11476 2.09404 4.23943C2.09404 4.31076 2.08554 4.37393 2.06854 4.42893C2.05154 4.48359 2.02437 4.52659 1.98704 4.55793C1.9497 4.58893 1.9007 4.60443 1.84004 4.60443ZM1.84104 4.49743C1.8697 4.49743 1.8922 4.48609 1.90854 4.46343C1.9252 4.44043 1.93687 4.40943 1.94354 4.37043C1.95054 4.33109 1.95404 4.28709 1.95404 4.23843C1.95404 4.18709 1.95037 4.14193 1.94304 4.10293C1.93604 4.06359 1.9242 4.03293 1.90754 4.01093C1.8912 3.98859 1.86904 3.97743 1.84104 3.97743C1.8127 3.97743 1.79004 3.98859 1.77304 4.01093C1.75637 4.03293 1.74437 4.06359 1.73704 4.10293C1.7297 4.14193 1.72604 4.18709 1.72604 4.23843C1.72604 4.28709 1.72954 4.33109 1.73654 4.37043C1.74387 4.40943 1.75587 4.44043 1.77254 4.46343C1.78954 4.48609 1.81237 4.49743 1.84104 4.49743Z" fill="black"/>
<path d="M0.749387 7.36401V6.71201L0.884387 6.64901V7.36401H0.749387ZM1.25996 7.38201C1.19929 7.38201 1.15029 7.36651 1.11296 7.33551C1.07562 7.30418 1.04846 7.26118 1.03146 7.20651C1.01446 7.15151 1.00596 7.08835 1.00596 7.01701C1.00596 6.89235 1.02812 6.80001 1.07246 6.74001C1.11712 6.68001 1.17962 6.65001 1.25996 6.65001C1.34062 6.65001 1.40312 6.68001 1.44746 6.74001C1.49179 6.80001 1.51396 6.89235 1.51396 7.01701C1.51396 7.08835 1.50546 7.15151 1.48846 7.20651C1.47146 7.26118 1.44429 7.30418 1.40696 7.33551C1.36962 7.36651 1.32062 7.38201 1.25996 7.38201ZM1.26096 7.27501C1.28962 7.27501 1.31212 7.26368 1.32846 7.24101C1.34512 7.21801 1.35679 7.18701 1.36346 7.14801C1.37046 7.10868 1.37396 7.06468 1.37396 7.01601C1.37396 6.96468 1.37029 6.91951 1.36296 6.88051C1.35596 6.84118 1.34412 6.81051 1.32746 6.78851C1.31112 6.76618 1.28896 6.75501 1.26096 6.75501C1.23262 6.75501 1.20996 6.76618 1.19296 6.78851C1.17629 6.81051 1.16429 6.84118 1.15696 6.88051C1.14962 6.91951 1.14596 6.96468 1.14596 7.01601C1.14596 7.06468 1.14946 7.10868 1.15646 7.14801C1.16379 7.18701 1.17579 7.21801 1.19246 7.24101C1.20946 7.26368 1.23229 7.27501 1.26096 7.27501ZM1.86445 7.38201C1.80378 7.38201 1.75478 7.36651 1.71745 7.33551C1.68012 7.30418 1.65295 7.26118 1.63595 7.20651C1.61895 7.15151 1.61045 7.08835 1.61045 7.01701C1.61045 6.89235 1.63262 6.80001 1.67695 6.74001C1.72162 6.68001 1.78412 6.65001 1.86445 6.65001C1.94512 6.65001 2.00762 6.68001 2.05195 6.74001C2.09628 6.80001 2.11845 6.89235 2.11845 7.01701C2.11845 7.08835 2.10995 7.15151 2.09295 7.20651C2.07595 7.26118 2.04878 7.30418 2.01145 7.33551C1.97412 7.36651 1.92512 7.38201 1.86445 7.38201ZM1.86545 7.27501C1.89412 7.27501 1.91662 7.26368 1.93295 7.24101C1.94962 7.21801 1.96128 7.18701 1.96795 7.14801C1.97495 7.10868 1.97845 7.06468 1.97845 7.01601C1.97845 6.96468 1.97478 6.91951 1.96745 6.88051C1.96045 6.84118 1.94862 6.81051 1.93195 6.78851C1.91562 6.76618 1.89345 6.75501 1.86545 6.75501C1.83712 6.75501 1.81445 6.76618 1.79745 6.78851C1.78078 6.81051 1.76878 6.84118 1.76145 6.88051C1.75412 6.91951 1.75045 6.96468 1.75045 7.01601C1.75045 7.06468 1.75395 7.10868 1.76095 7.14801C1.76828 7.18701 1.78028 7.21801 1.79695 7.24101C1.81395 7.26368 1.83678 7.27501 1.86545 7.27501Z" fill="black"/>
<path d="M1.11687 9.88983C1.08554 9.88983 1.0542 9.88599 1.02287 9.87833C0.991871 9.87066 0.963538 9.85866 0.937871 9.84233C0.912538 9.82566 0.892204 9.80399 0.876871 9.77733C0.861538 9.75066 0.853871 9.71849 0.853871 9.68083C0.853871 9.63683 0.866204 9.60049 0.890871 9.57183C0.915538 9.54316 0.947704 9.52183 0.987371 9.50783C0.955371 9.49349 0.930038 9.47249 0.911371 9.44483C0.893038 9.41683 0.883871 9.38149 0.883871 9.33883C0.883871 9.29483 0.895204 9.25966 0.917871 9.23333C0.940871 9.20666 0.970204 9.18749 1.00587 9.17583C1.04187 9.16383 1.0792 9.15783 1.11787 9.15783C1.1562 9.15783 1.19304 9.16383 1.22837 9.17583C1.2637 9.18749 1.29254 9.20666 1.31487 9.23333C1.33754 9.25966 1.34887 9.29483 1.34887 9.33883C1.34887 9.38083 1.3392 9.41583 1.31987 9.44383C1.30054 9.47149 1.27537 9.49283 1.24437 9.50783C1.28437 9.52149 1.3167 9.54283 1.34137 9.57183C1.36637 9.60049 1.37887 9.63683 1.37887 9.68083C1.37887 9.71849 1.3712 9.75066 1.35587 9.77733C1.34054 9.80399 1.32004 9.82566 1.29437 9.84233C1.26904 9.85866 1.24087 9.87066 1.20987 9.87833C1.1792 9.88599 1.1482 9.88983 1.11687 9.88983ZM1.11887 9.46183C1.14987 9.46183 1.1737 9.45183 1.19037 9.43183C1.20737 9.41183 1.21587 9.38383 1.21587 9.34783C1.21587 9.31516 1.20804 9.29066 1.19237 9.27433C1.17704 9.25799 1.15254 9.24983 1.11887 9.24983C1.05154 9.24983 1.01787 9.28249 1.01787 9.34783C1.01787 9.38383 1.02687 9.41183 1.04487 9.43183C1.0632 9.45183 1.08787 9.46183 1.11887 9.46183ZM1.11687 9.78883C1.19487 9.78883 1.23387 9.75216 1.23387 9.67883C1.23387 9.64883 1.22804 9.62516 1.21637 9.60783C1.20504 9.59049 1.19037 9.57816 1.17237 9.57083C1.15437 9.56349 1.13587 9.55983 1.11687 9.55983C1.09754 9.55983 1.0787 9.56349 1.06037 9.57083C1.04237 9.57816 1.02737 9.59049 1.01537 9.60783C1.0037 9.62516 0.997871 9.64883 0.997871 9.67883C0.997871 9.71583 1.00804 9.74349 1.02837 9.76183C1.04904 9.77983 1.07854 9.78883 1.11687 9.78883ZM1.71796 9.88983C1.6573 9.88983 1.6083 9.87433 1.57096 9.84333C1.53363 9.81199 1.50646 9.76899 1.48946 9.71433C1.47246 9.65933 1.46396 9.59616 1.46396 9.52483C1.46396 9.40016 1.48613 9.30783 1.53046 9.24783C1.57513 9.18783 1.63763 9.15783 1.71796 9.15783C1.79863 9.15783 1.86113 9.18783 1.90546 9.24783C1.9498 9.30783 1.97196 9.40016 1.97196 9.52483C1.97196 9.59616 1.96346 9.65933 1.94646 9.71433C1.92946 9.76899 1.9023 9.81199 1.86496 9.84333C1.82763 9.87433 1.77863 9.88983 1.71796 9.88983ZM1.71896 9.78283C1.74763 9.78283 1.77013 9.77149 1.78646 9.74883C1.80313 9.72583 1.8148 9.69483 1.82146 9.65583C1.82846 9.61649 1.83196 9.57249 1.83196 9.52383C1.83196 9.47249 1.8283 9.42733 1.82096 9.38833C1.81396 9.34899 1.80213 9.31833 1.78546 9.29633C1.76913 9.27399 1.74696 9.26283 1.71896 9.26283C1.69063 9.26283 1.66796 9.27399 1.65096 9.29633C1.6343 9.31833 1.6223 9.34899 1.61496 9.38833C1.60763 9.42733 1.60396 9.47249 1.60396 9.52383C1.60396 9.57249 1.60746 9.61649 1.61446 9.65583C1.6218 9.69483 1.6338 9.72583 1.65046 9.74883C1.66746 9.77149 1.6903 9.78283 1.71896 9.78283Z" fill="black"/>
<path d="M1.01808 12.7721C0.985411 12.7721 0.953245 12.7661 0.921578 12.7541C0.889911 12.7421 0.861245 12.7226 0.835578 12.6956C0.810245 12.6682 0.789911 12.6321 0.774578 12.5871C0.759578 12.5421 0.752078 12.4867 0.752078 12.4211C0.752078 12.3431 0.765078 12.2759 0.791078 12.2196C0.817411 12.1629 0.853411 12.1194 0.899078 12.0891C0.945078 12.0584 0.997411 12.0431 1.05608 12.0431C1.10308 12.0431 1.13924 12.0477 1.16458 12.0571C1.19024 12.0661 1.21108 12.0784 1.22708 12.0941L1.17808 12.1901C1.16474 12.1754 1.14691 12.1654 1.12458 12.1601C1.10224 12.1547 1.08174 12.1521 1.06308 12.1521C1.02841 12.1521 0.998245 12.1624 0.972578 12.1831C0.947245 12.2037 0.927245 12.2302 0.912578 12.2626C0.897911 12.2946 0.889411 12.3277 0.887078 12.3621C0.886745 12.3691 0.886411 12.3756 0.886078 12.3816C0.886078 12.3876 0.886078 12.3934 0.886078 12.3991C0.904078 12.3644 0.929411 12.3392 0.962078 12.3236C0.995078 12.3079 1.02974 12.3001 1.06608 12.3001C1.11108 12.3001 1.14908 12.3101 1.18008 12.3301C1.21141 12.3497 1.23508 12.3762 1.25108 12.4096C1.26708 12.4429 1.27508 12.4797 1.27508 12.5201C1.27508 12.5714 1.26424 12.6159 1.24258 12.6536C1.22124 12.6912 1.19124 12.7204 1.15258 12.7411C1.11424 12.7617 1.06941 12.7721 1.01808 12.7721ZM1.02508 12.6691C1.05674 12.6691 1.08391 12.6571 1.10658 12.6331C1.12958 12.6087 1.14108 12.5751 1.14108 12.5321C1.14108 12.4931 1.13258 12.4617 1.11558 12.4381C1.09858 12.4141 1.07208 12.4021 1.03608 12.4021C1.01408 12.4021 0.992911 12.4076 0.972578 12.4186C0.952578 12.4292 0.935911 12.4436 0.922578 12.4616C0.909578 12.4796 0.902411 12.4994 0.901078 12.5211C0.901078 12.5474 0.905911 12.5719 0.915578 12.5946C0.925578 12.6169 0.939745 12.6349 0.958078 12.6486C0.976745 12.6622 0.999078 12.6691 1.02508 12.6691ZM1.61005 12.7751C1.54939 12.7751 1.50039 12.7596 1.46305 12.7286C1.42572 12.6972 1.39855 12.6542 1.38155 12.5996C1.36455 12.5446 1.35605 12.4814 1.35605 12.4101C1.35605 12.2854 1.37822 12.1931 1.42255 12.1331C1.46722 12.0731 1.52972 12.0431 1.61005 12.0431C1.69072 12.0431 1.75322 12.0731 1.79755 12.1331C1.84189 12.1931 1.86405 12.2854 1.86405 12.4101C1.86405 12.4814 1.85555 12.5446 1.83855 12.5996C1.82155 12.6542 1.79439 12.6972 1.75705 12.7286C1.71972 12.7596 1.67072 12.7751 1.61005 12.7751ZM1.61105 12.6681C1.63972 12.6681 1.66222 12.6567 1.67855 12.6341C1.69522 12.6111 1.70689 12.5801 1.71355 12.5411C1.72055 12.5017 1.72405 12.4577 1.72405 12.4091C1.72405 12.3577 1.72039 12.3126 1.71305 12.2736C1.70605 12.2342 1.69422 12.2036 1.67755 12.1816C1.66122 12.1592 1.63905 12.1481 1.61105 12.1481C1.58272 12.1481 1.56005 12.1592 1.54305 12.1816C1.52639 12.2036 1.51439 12.2342 1.50705 12.2736C1.49972 12.3126 1.49605 12.3577 1.49605 12.4091C1.49605 12.4577 1.49955 12.5017 1.50655 12.5411C1.51389 12.5801 1.52589 12.6111 1.54255 12.6341C1.55955 12.6567 1.58239 12.6681 1.61105 12.6681Z" fill="black"/>
<path d="M0.733426 15.384L0.990426 14.824H1.20143V15.298H1.28543V15.395H1.20143V15.521H1.07043V15.395H0.740426L0.733426 15.384ZM0.911426 15.298H1.07643L1.08093 14.8955L0.968426 15.174L0.911426 15.298ZM1.60371 15.539C1.54304 15.539 1.49404 15.5235 1.45671 15.4925C1.41937 15.4612 1.39221 15.4182 1.37521 15.3635C1.35821 15.3085 1.34971 15.2453 1.34971 15.174C1.34971 15.0493 1.37187 14.957 1.41621 14.897C1.46087 14.837 1.52337 14.807 1.60371 14.807C1.68437 14.807 1.74687 14.837 1.79121 14.897C1.83554 14.957 1.85771 15.0493 1.85771 15.174C1.85771 15.2453 1.84921 15.3085 1.83221 15.3635C1.81521 15.4182 1.78804 15.4612 1.75071 15.4925C1.71337 15.5235 1.66437 15.539 1.60371 15.539ZM1.60471 15.432C1.63337 15.432 1.65587 15.4207 1.67221 15.398C1.68887 15.375 1.70054 15.344 1.70721 15.305C1.71421 15.2657 1.71771 15.2217 1.71771 15.173C1.71771 15.1217 1.71404 15.0765 1.70671 15.0375C1.69971 14.9982 1.68787 14.9675 1.67121 14.9455C1.65487 14.9232 1.63271 14.912 1.60471 14.912C1.57637 14.912 1.55371 14.9232 1.53671 14.9455C1.52004 14.9675 1.50804 14.9982 1.50071 15.0375C1.49337 15.0765 1.48971 15.1217 1.48971 15.173C1.48971 15.2217 1.49321 15.2657 1.50021 15.305C1.50754 15.344 1.51954 15.375 1.53621 15.398C1.55321 15.4207 1.57604 15.432 1.60471 15.432Z" fill="black"/>
<path d="M0.968969 17.9959H1.29397V18.1099H0.844969C0.842969 18.0992 0.841302 18.0885 0.839969 18.0779C0.838635 18.0669 0.837969 18.0542 0.837969 18.0399C0.837969 17.9975 0.844802 17.9614 0.858469 17.9314C0.872469 17.9014 0.892802 17.8745 0.919469 17.8509C0.946469 17.8272 0.979635 17.8039 1.01897 17.7809C1.04064 17.7682 1.0623 17.7542 1.08397 17.7389C1.10564 17.7235 1.12364 17.7054 1.13797 17.6844C1.15264 17.663 1.15997 17.6372 1.15997 17.6069C1.15997 17.5809 1.1518 17.5577 1.13547 17.5374C1.11947 17.517 1.09364 17.5069 1.05797 17.5069C1.02097 17.5069 0.991302 17.5189 0.968969 17.5429C0.946969 17.5669 0.932969 17.5979 0.926969 17.6359L0.820969 17.5859C0.826302 17.5512 0.839802 17.5195 0.861469 17.4909C0.883135 17.4619 0.911469 17.4389 0.946469 17.4219C0.981469 17.4045 1.02164 17.3959 1.06697 17.3959C1.1083 17.3959 1.1458 17.4037 1.17947 17.4194C1.21314 17.4347 1.23997 17.4572 1.25997 17.4869C1.27997 17.5165 1.28997 17.5525 1.28997 17.5949C1.28997 17.6382 1.28214 17.6757 1.26647 17.7074C1.2508 17.739 1.22764 17.7679 1.19697 17.7939C1.16664 17.8199 1.1293 17.8462 1.08497 17.8729C1.05364 17.8919 1.0278 17.9097 1.00747 17.9264C0.987469 17.9427 0.974635 17.9659 0.968969 17.9959ZM1.63252 18.1279C1.57185 18.1279 1.52285 18.1124 1.48552 18.0814C1.44818 18.05 1.42102 18.007 1.40402 17.9524C1.38702 17.8974 1.37852 17.8342 1.37852 17.7629C1.37852 17.6382 1.40068 17.5459 1.44502 17.4859C1.48968 17.4259 1.55218 17.3959 1.63252 17.3959C1.71318 17.3959 1.77568 17.4259 1.82002 17.4859C1.86435 17.5459 1.88652 17.6382 1.88652 17.7629C1.88652 17.8342 1.87802 17.8974 1.86102 17.9524C1.84402 18.007 1.81685 18.05 1.77952 18.0814C1.74218 18.1124 1.69318 18.1279 1.63252 18.1279ZM1.63352 18.0209C1.66218 18.0209 1.68468 18.0095 1.70102 17.9869C1.71768 17.9639 1.72935 17.9329 1.73602 17.8939C1.74302 17.8545 1.74652 17.8105 1.74652 17.7619C1.74652 17.7105 1.74285 17.6654 1.73552 17.6264C1.72852 17.587 1.71668 17.5564 1.70002 17.5344C1.68368 17.512 1.66152 17.5009 1.63352 17.5009C1.60518 17.5009 1.58252 17.512 1.56552 17.5344C1.54885 17.5564 1.53685 17.587 1.52952 17.6264C1.52218 17.6654 1.51852 17.7105 1.51852 17.7619C1.51852 17.8105 1.52202 17.8545 1.52902 17.8939C1.53635 17.9329 1.54835 17.9639 1.56502 17.9869C1.58202 18.0095 1.60485 18.0209 1.63352 18.0209Z" fill="black"/>
<path d="M1.29707 20.8918C1.2364 20.8918 1.1874 20.8763 1.15007 20.8453C1.11273 20.8139 1.08557 20.7709 1.06857 20.7163C1.05157 20.6613 1.04307 20.5981 1.04307 20.5268C1.04307 20.4021 1.06523 20.3098 1.10957 20.2498C1.15423 20.1898 1.21673 20.1598 1.29707 20.1598C1.37773 20.1598 1.44023 20.1898 1.48457 20.2498C1.5289 20.3098 1.55107 20.4021 1.55107 20.5268C1.55107 20.5981 1.54257 20.6613 1.52557 20.7163C1.50857 20.7709 1.4814 20.8139 1.44407 20.8453C1.40673 20.8763 1.35773 20.8918 1.29707 20.8918ZM1.29807 20.7848C1.32673 20.7848 1.34923 20.7734 1.36557 20.7508C1.38223 20.7278 1.3939 20.6968 1.40057 20.6578C1.40757 20.6184 1.41107 20.5744 1.41107 20.5258C1.41107 20.4744 1.4074 20.4293 1.40007 20.3903C1.39307 20.3509 1.38123 20.3203 1.36457 20.2983C1.34823 20.2759 1.32607 20.2648 1.29807 20.2648C1.26973 20.2648 1.24707 20.2759 1.23007 20.2983C1.2134 20.3203 1.2014 20.3509 1.19407 20.3903C1.18673 20.4293 1.18307 20.4744 1.18307 20.5258C1.18307 20.5744 1.18657 20.6184 1.19357 20.6578C1.2009 20.6968 1.2129 20.7278 1.22957 20.7508C1.24657 20.7734 1.2694 20.7848 1.29807 20.7848Z" fill="black"/>
</svg>
