<svg width="10" height="8" viewBox="0 0 10 26" fill="none" xmlns="http://www.w3.org/2000/svg">
<g clip-path="url(#clip0_97_135)">
<path d="M7.56953 25.3997L2.22598 25.5268C1.73941 25.5384 1.36361 25.133 1.38715 24.6219L1.57547 20.533C1.58698 20.2829 1.69504 20.0399 1.87406 19.8618L4.60715 17.1478C4.95966 16.7972 5.49233 16.7789 5.8189 17.106L8.42885 19.7039C8.60057 19.8756 8.69157 20.1176 8.67971 20.375L8.4919 24.4528C8.46836 24.9639 8.05435 25.3881 7.56777 25.3997L7.56953 25.3997Z" fill="#C5D8E3"/>
<path d="M15.9554 25.2002L10.6119 25.3274C10.1253 25.3389 9.7495 24.9335 9.77304 24.4224L10.1405 16.4446C10.152 16.1946 10.26 15.9515 10.4391 15.7734L13.1722 13.0594C13.5247 12.7088 14.0573 12.6906 14.3839 13.0176L16.9939 15.6156C17.1656 15.7872 17.2566 16.0292 17.2447 16.2866L16.8778 24.2534C16.8542 24.7645 16.4402 25.1887 15.9537 25.2003L15.9554 25.2002Z" fill="#C5D8E3"/>
<path d="M0.793358 18.2282C1.99367 17.0583 3.19575 15.8884 4.39607 14.7185L10.0766 9.18548C10.497 8.77592 10.9141 8.36088 11.3396 7.95489C11.9198 7.40279 12.7851 7.3119 13.3611 7.8069C13.8591 8.23531 14.196 8.79705 14.8674 8.97715C15.5789 9.16926 16.3423 8.91986 16.9012 8.37011C17.0802 8.19382 17.2593 8.01383 17.4383 7.83568C18.2596 7.01886 19.0809 6.20019 19.9005 5.38341C21.5007 3.78963 23.1027 2.1958 24.7029 0.602017L24.797 0.509136C25.0535 0.253304 24.6979 -0.130398 24.4413 0.125434C23.0497 1.51077 21.658 2.89797 20.2664 4.28331L17.5477 6.98955L16.7246 7.80827C16.4643 8.06789 16.2121 8.30512 15.86 8.41709C15.4025 8.56301 14.9114 8.4822 14.5458 8.19863C14.3298 8.03173 14.1466 7.80486 13.9566 7.6096C13.3546 6.99128 12.5181 6.72446 11.6622 7.10739C11.0976 7.35945 10.628 7.92003 10.18 8.35615C8.37129 10.1177 6.56259 11.8792 4.7538 13.6426C3.33783 15.0211 1.92363 16.3996 0.507669 17.7781L0.435757 17.8483C0.177598 18.1004 0.533265 18.4841 0.791424 18.232L0.793358 18.2282Z" fill="#221F20"/>
</g>
<defs>
<clipPath id="clip0_97_135">
<rect width="25.2281" height="25.0063" fill="white" transform="matrix(0.999717 -0.0237864 -0.0460083 0.998941 1.15051 0.600098)"/>
</clipPath>
</defs>
</svg>
