<svg width="14" height="15" viewBox="0 0 14 15" fill="none" xmlns="http://www.w3.org/2000/svg">
<g clip-path="url(#clip0_78_224)">
<path d="M10.2239 5.86233C11.7573 5.87357 13.0878 4.75078 13.1957 3.35451C13.3037 1.95824 12.1481 0.817234 10.6147 0.805995C9.08131 0.794756 7.75077 1.91754 7.64284 3.31381C7.53491 4.71008 8.69048 5.85109 10.2239 5.86233Z" fill="url(#paint0_linear_78_224)"/>
<path d="M3.27926 12.8783C4.4284 12.8867 5.42553 12.0453 5.50641 10.9989C5.58729 9.95249 4.7213 9.0974 3.57216 9.08898C2.42302 9.08056 1.42589 9.92199 1.34501 10.9684C1.26413 12.0148 2.13012 12.8698 3.27926 12.8783Z" fill="#C5D8E3"/>
<path d="M10.7683 3.77112L10.3293 9.45008C10.3256 9.49767 10.3198 9.54524 10.3183 9.59285C10.3136 9.76542 10.4251 9.91603 10.6129 9.95312C10.6805 9.96651 10.7549 9.9621 10.8246 9.96261L11.6107 9.96837C11.6869 9.96893 12.0547 9.93195 11.9721 10.0702C11.9445 10.1176 11.881 10.1638 11.842 10.2032L11.519 10.5351L9.32266 12.7907C9.02328 13.098 8.7239 13.4053 8.42445 13.7136C8.35221 13.7885 8.27997 13.8634 8.20671 13.9372C8.14768 13.9963 8.08907 14.0217 8.0291 13.9518C7.56162 13.4038 7.12435 12.8311 6.67194 12.2713C6.11423 11.5798 5.55644 10.8892 4.99765 10.1977C4.95286 10.1428 4.89082 10.0858 4.85746 10.024C4.7888 9.89754 5.03435 9.92017 5.11709 9.92077L5.91301 9.92661C5.97507 9.92706 6.03799 9.9305 6.10137 9.92799C6.30022 9.92052 6.4795 9.79982 6.52199 9.61661C6.56803 9.41557 6.55658 9.19725 6.56996 8.99597C6.60179 8.54186 6.6337 8.08677 6.66553 7.63267L6.85147 4.97348C6.85653 4.90805 6.85022 4.83459 6.86617 4.76924C6.89519 4.64743 7.17554 4.69909 7.27026 4.69978L8.03678 4.7054C8.13259 4.7061 8.22522 4.70579 8.3157 4.66281C8.48646 4.58172 8.58238 4.39791 8.53833 4.2349C8.51552 4.14942 8.44692 4.07849 8.39124 4.00963L8.14661 3.70726C7.87122 3.36598 7.59584 3.0247 7.32045 2.68341C6.72792 1.94896 6.13431 1.21449 5.54171 0.48103C5.39887 0.299439 5.24689 0.0106448 4.95566 0.0293422C4.70059 0.0453286 4.50198 0.331553 4.34576 0.492104C3.6357 1.22197 2.92571 1.95085 2.21455 2.68071L1.24301 3.67849L0.96368 3.9661C0.889108 4.04293 0.809322 4.11675 0.779652 4.21871C0.729375 4.38995 0.826715 4.56824 1.00169 4.63003C1.07802 4.65737 1.15882 4.65499 1.24048 4.65559L2.01135 4.66124C2.10717 4.66194 2.41267 4.61359 2.42961 4.73275C2.43674 4.78141 2.42118 4.84181 2.41735 4.89138L1.97969 10.5535C1.9649 10.7448 2.29154 10.7472 2.30633 10.5559L2.74529 4.87692C2.74897 4.82933 2.75482 4.78176 2.75632 4.73415C2.76095 4.56158 2.64949 4.41097 2.4617 4.37388C2.39411 4.36049 2.31968 4.36491 2.25 4.36439L1.46389 4.35863C1.38767 4.35807 1.01986 4.39506 1.10245 4.25678C1.13008 4.20937 1.19356 4.16321 1.23256 4.12382L1.55563 3.79188C2.28807 3.04035 3.0195 2.28783 3.75194 1.5363L4.65014 0.613375C4.72238 0.538513 4.79463 0.46365 4.86788 0.389787C4.92692 0.3307 4.98553 0.305337 5.04549 0.375217C5.51298 0.923252 5.95024 1.49587 6.40265 2.05569C6.96036 2.74724 7.51815 3.43779 8.07695 4.12934C8.12173 4.18423 8.18378 4.24123 8.21714 4.30298C8.2858 4.42947 8.04025 4.40684 7.9575 4.40623L7.16159 4.4004C7.09952 4.39994 7.0366 4.3965 6.97322 4.39901C6.77437 4.40648 6.59509 4.52719 6.55261 4.7104C6.50656 4.91143 6.51801 5.12976 6.50463 5.33104C6.4728 5.78514 6.44089 6.24023 6.40906 6.69434L6.22312 9.35352C6.21807 9.41896 6.22437 9.49241 6.20843 9.55777C6.1794 9.67957 5.89906 9.62791 5.80433 9.62722L5.03781 9.6216C4.942 9.6209 4.84937 9.62121 4.7589 9.6642C4.58813 9.74528 4.49221 9.92909 4.53626 10.0921C4.55907 10.1776 4.62767 10.2485 4.68335 10.3174L4.92798 10.6197L5.75415 11.6436C6.34667 12.378 6.94028 13.1125 7.53288 13.846C7.67704 14.0246 7.82895 14.3144 8.12018 14.2957C8.37525 14.2797 8.57386 13.9935 8.73007 13.8329C9.44014 13.1031 10.1501 12.3742 10.8613 11.6443L11.8328 10.6465L12.1122 10.3589C12.1867 10.2821 12.2665 10.2083 12.2962 10.1063C12.3465 9.93508 12.2491 9.75679 12.0741 9.695C11.9978 9.66766 11.917 9.67004 11.8354 9.66944L11.0645 9.66379C10.9687 9.66309 10.6632 9.71144 10.6462 9.59228C10.6391 9.54362 10.6547 9.48322 10.6585 9.43365L11.0961 3.77154C11.1109 3.58019 10.7843 3.5778 10.7695 3.76914L10.7683 3.77112Z" fill="#221F20"/>
</g>
<defs>
<linearGradient id="paint0_linear_78_224" x1="7.64393" y1="3.31382" x2="13.1659" y2="3.74065" gradientUnits="userSpaceOnUse">
<stop stop-color="#9BCB9E"/>
<stop offset="1" stop-color="#78C1C4"/>
</linearGradient>
<clipPath id="clip0_78_224">
<rect width="12.3484" height="14.2815" fill="white" transform="matrix(0.999973 0.00732944 -0.0770662 0.997026 1.10059 0)"/>
</clipPath>
</defs>
</svg>
